# xmcd
#
# Track frame offsets:
#	150
#	21188
#	40613
#	66075
#	90350
#	110588
#	126600
#	150700
#	172063
#	197350
#	220750
#	241800
#	262875
#	280300
#	302013
#	319988
#
# Disc length: 4523 seconds
#
# Revision: 1
# Processed by: cddbd v1.5.1PL0 Copyright (c) Steve Scherf et al.
# Submitted via: CDex 1.50Beta5
#
DISCID=db11a910
DTITLE=Various Artist - BEAT EXPRESS Vol.4 DISC TWO
DYEAR=1900
DGENRE=Jpops
TTITLE0=フェビアン/冒険クラブ
TTITLE1=遊佐未森/地図をください
TTITLE2=安藤秀樹/せいいっぱい
TTITLE3=鈴木祥子/サンデーバザール
TTITLE4=種ともこ/ゲンキ力爆弾
TTITLE5=GRASS VALLEY/MY LOVER
TTITLE6=FENCE OF DEFENCE/DATA NO.6
TTITLE7=バービーボーイズ/目を閉じておいでよ
TTITLE8=TM NETWORK/JUST ONE VICTORY
TTITLE9=Dreams Come True/あなたに会いたくて
TTITLE10=久保田利伸/Dance If You Want It
TTITLE11=子比類巻かほる/TONIGHT
TTITLE12=松岡英明/CATCH
TTITLE13=バブルガムブラザーズ/気付いた時にはせつなくて
TTITLE14=岡村靖幸/聖書
TTITLE15=大沢誉志幸/Stop&ギミーラブ
EXTD=
EXTT0=
EXTT1=
EXTT2=
EXTT3=
EXTT4=
EXTT5=
EXTT6=
EXTT7=
EXTT8=
EXTT9=
EXTT10=
EXTT11=
EXTT12=
EXTT13=
EXTT14=
EXTT15=
PLAYORDER=
